# xmcd
#
# Track frame offsets:
#	150
#	20415
#	37826
#	56386
#	77160
#	100023
#	114480
#	133425
#	150848
#	173205
#	190239
#	209768
#	223418
#	239379
#	256440
#	273405
#
# Disc length: 4141 seconds
#
# Revision: 0
# Processed by: cddbd v1.5.2PL0 Copyright (c) Steve Scherf et al.
# Submitted via: audiograbber 1.83.01
#
DISCID=e3102b10
DTITLE=The Emotions - Don't Ask My Neighbors - Disc 3
DYEAR=2019
DGENRE=Soul
TTITLE0=All Night, All Right
TTITLE1=Love Lies
TTITLE2=Now That I Know
TTITLE3=There'll Never Be Another Moment
TTITLE4=Turn It Out
TTITLE5=New Affair
TTITLE6=Here You Come Again
TTITLE7=When You Gonna Wake Up
TTITLE8=Boogie Wonderland (With Earth Wind and Fire)
TTITLE9=I Should Be Dancing (Single)
TTITLE10=My Baby Dance (Non Album B-Side)
TTITLE11=Changes (Non Album B-Side)
TTITLE12=Where Is Your Love (Single)
TTITLE13=Don't Ask My Neighbour (Single)
TTITLE14=Flowers (Single)
TTITLE15=Boogie Wonderland (With Earth Wind and Fire) 12inch Version
EXTD=
EXTT0=
EXTT1=
EXTT2=
EXTT3=
EXTT4=
EXTT5=
EXTT6=
EXTT7=
EXTT8=
EXTT9=
EXTT10=
EXTT11=
EXTT12=
EXTT13=
EXTT14=
EXTT15=
PLAYORDER=
